#!OML:ASF H:\ManfredETheater\Project 1\Capture day 1\Session 1\subject.ASF
:FULLY-SPECIFIED
:DEGREES
125
root -9.08194 16.56 36.0548 -159.41 23.9489 181.528
lowerback 13.8674 3.6054 6.15628
upperback -1.56627 6.48925 3.92668
thorax -9.28869 3.02277 -0.635247
lowerneck -16.2392 3.98006 1.76515
upperneck 2.89186 6.28541 -10.783
head 3.91112 2.76728 -3.09077
rclavicle -1.82882e-014 -7.31528e-014
rhumerus -25.9609 11.8817 -88.0095
rradius 39.5054
rwrist 1.24698
rhand -19.5377 -9.28357
rfingers 7.12502
rthumb 6.78615 -39.1548
lclavicle -1.82882e-014 -7.31528e-014
lhumerus -35.0771 -5.62865 96.6514
lradius 40.5566
lwrist -1.4421
lhand -16.0862 1.25124
lfingers 7.12502
lthumb 10.117 30.988
rfemur -14.6563 -8.07554 21.6209
rtibia 29.2629
rfoot -26.7451 -18.9575
rtoes -33.4696
lfemur -54.736 12.3668 -16.0225
ltibia 70.0607
lfoot -18.6823 -10.8932
ltoes -6.11442
126
root -9.07233 16.5215 35.9365 -159.005 23.8264 181.697
lowerback 13.9796 3.62545 6.31869
upperback -1.55929 6.5706 3.9918
thorax -9.3341 3.05738 -0.680282
lowerneck -16.2712 3.96438 1.80222
upperneck 2.63039 6.2648 -10.9152
head 3.84159 2.76857 -3.14017
rclavicle -7.95139e-016 6.20208e-014
rhumerus -25.6456 12.838 -88.4288
rradius 40.1182
rwrist 1.19311
rhand -19.669 -8.94737
rfingers 7.12502
rthumb 6.65934 -38.8227
lclavicle -7.95139e-016 6.20208e-014
lhumerus -35.293 -6.1032 96.8404
lradius 40.8215
lwrist -1.35092
lhand -16.3297 1.24807
lfingers 7.12502
lthumb 9.88212 30.9961
rfemur -14.6484 -8.33468 21.7027
rtibia 29.3397
rfoot -26.741 -19.0236
rtoes -33.9565
lfemur -55.5574 12.8159 -16.196
ltibia 70.697
lfoot -18.867 -11.348
ltoes -6.25215
127
root -9.06084 16.4807 35.8143 -158.597 23.6622 181.868
lowerback 14.0654 3.63672 6.47945
upperback -1.55617 6.63807 4.0555
thorax -9.36893 3.08577 -0.721218
lowerneck -16.2888 3.94747 1.84554
upperneck 2.36545 6.23819 -11.0315
head 3.76786 2.76815 -3.18645
rclavicle -1.90833e-014 1.90833e-014
rhumerus -25.3146 13.8165 -88.8476
rradius 40.8264
rwrist 1.18298
rhand -19.7532 -8.69063
rfingers 7.12502
rthumb 6.57807 -38.5685
lclavicle -1.90833e-014 1.90833e-014
lhumerus -35.5357 -6.53525 96.9942
lradius 41.1153
lwrist -1.29643
lhand -16.6254 1.19433
lfingers 7.12502
lthumb 9.59675 30.9558
rfemur -14.6031 -8.59044 21.7925
rtibia 29.4006
rfoot -26.8308 -19.0562
rtoes -34.3321
lfemur -56.4089 13.2667 -16.3981
ltibia 71.3696
lfoot -19.0572 -11.8082
ltoes -6.36486
128
root -9.04735 16.4379 35.6878 -158.189 23.4585 182.037
lowerback 14.1291 3.64118 6.63054
upperback -1.56042 6.69342 4.11833
thorax -9.40059 3.10885 -0.753833
lowerneck -16.3026 3.90928 1.86615
upperneck 2.0996 6.18164 -11.0978
head 3.68849 2.7548 -3.21645
rclavicle -1.66979e-014 1.59028e-015
rhumerus -24.9696 14.8067 -89.263
rradius 41.6223
rwrist 1.19553
rhand -19.8377 -8.54368
rfingers 7.12502
rthumb 6.49653 -38.424
lclavicle -1.66979e-014 1.59028e-015
lhumerus -35.8116 -6.91401 97.1112
lradius 41.4304
lwrist -1.26527
lhand -16.9429 1.0999
lfingers 7.12502
lthumb 9.29044 30.8752
rfemur -14.5129 -8.84479 21.8864
rtibia 29.4355
rfoot -26.9983 -19.0636
rtoes -34.656
lfemur -57.2835 13.7188 -16.6339
ltibia 72.0757
lfoot -19.2477 -12.2764
ltoes -6.49162
129
root -9.03195 16.3933 35.5567 -157.787 23.2171 182.201
lowerback 14.174 3.63876 6.76755
upperback -1.57359 6.73621 4.18119
thorax -9.43332 3.12649 -0.77495
lowerneck -16.2903 3.87291 1.89439
upperneck 1.83457 6.12371 -11.1548
head 3.60503 2.74162 -3.24523
rclavicle -6.91771e-014 1.06549e-013
rhumerus -24.6195 15.7934 -89.6695
rradius 42.5042
rwrist 1.23868
rhand -19.917 -8.47319
rfingers 7.12502
rthumb 6.41996 -38.3559
lclavicle -6.91771e-014 1.06549e-013
lhumerus -36.1311 -7.23375 97.1927
lradius 41.7713
lwrist -1.24012
lhand -17.2885 0.964329
lfingers 7.12502
lthumb 8.95697 30.7542
rfemur -14.3663 -9.08889 21.9761
rtibia 29.4347
rfoot -27.2323 -19.0533
rtoes -34.9225
lfemur -58.173 14.1677 -16.9079
ltibia 72.8111
lfoot -19.434 -12.7655
ltoes -6.62818
130
root -9.01466 16.3469 35.4205 -157.391 22.9422 182.362
lowerback 14.1986 3.63317 6.89472
upperback -1.5943 6.77158 4.24261
thorax -9.46397 3.141 -0.789333
lowerneck -16.2694 3.82943 1.9192
upperneck 1.57904 6.05442 -11.1886
head 3.52131 2.72318 -3.26738
rclavicle -2.38542e-015 -2.70347e-014
rhumerus -24.271 16.7589 -90.0663
rradius 43.4476
rwrist 1.23463
rhand -20.0785 -8.38403
rfingers 7.12502
rthumb 6.26404 -38.2714
lclavicle -2.38542e-015 -2.70347e-014
lhumerus -36.4931 -7.51967 97.2424
lradius 42.1411
lwrist -1.19587
lhand -17.6437 0.813059
lfingers 7.12502
lthumb 8.61417 30.6173
rfemur -14.1625 -9.32375 22.0655
rtibia 29.3926
rfoot -27.4967 -19.0221
rtoes -35.1846
lfemur -59.07 14.6151 -17.2171
ltibia 73.5717
lfoot -19.6131 -13.2928
ltoes -6.83101
131
root -8.9956 16.2989 35.2792 -157.003 22.6333 182.52
lowerback 14.212 3.62394 7.01017
upperback -1.62741 6.80069 4.3069
thorax -9.5039 3.15279 -0.792466
lowerneck -16.2319 3.77926 1.93972
upperneck 1.34091 5.9763 -11.2125
head 3.43923 2.69997 -3.28664
rclavicle 2.14687e-014 1.17681e-013
rhumerus -23.9526 17.6814 -90.4453
rradius 44.4669
rwrist 1.20475
rhand -20.2918 -8.28119
rfingers 7.12502
rthumb 6.05806 -38.1746
lclavicle 2.14687e-014 1.17681e-013
lhumerus -36.909 -7.7841 97.2726
lradius 42.5466
lwrist -1.11744
lhand -18.0248 0.651283
lfingers 7.12502
lthumb 8.2464 30.4703
rfemur -13.8951 -9.54901 22.1534
rtibia 29.3029
rfoot -27.7629 -18.988
rtoes -35.4558
lfemur -59.9663 15.0541 -17.5599
ltibia 74.3515
lfoot -19.7774 -13.8832
ltoes -7.04749
132
root -8.97486 16.2496 35.1323 -156.623 22.2986 182.677
lowerback 14.2126 3.61771 7.11897
upperback -1.66985 6.83206 4.36942
thorax -9.54721 3.16568 -0.793582
lowerneck -16.1924 3.72559 1.96317
upperneck 1.13 5.89365 -11.2317
head 3.36475 2.67308 -3.3051
rclavicle 0 7.79236e-014
rhumerus -23.6754 18.5282 -90.805
rradius 45.5663
rwrist 1.12268
rhand -20.5438 -8.14523
rfingers 7.12502
rthumb 5.81485 -38.0454
lclavicle 0 7.79236e-014
lhumerus -37.3791 -8.06014 97.2885
lradius 43.004
lwrist -0.998224
lhand -18.3792 0.511335
lfingers 7.12502
lthumb 7.90437 30.3436
rfemur -13.5704 -9.7759 22.2462
rtibia 29.164
rfoot -27.9481 -19.0236
rtoes -35.9239
lfemur -60.8535 15.4864 -17.9347
ltibia 75.1441
lfoot -19.9254 -14.5491
ltoes -7.27637
133
root -8.95262 16.1991 34.9795 -156.248 21.9362 182.838
lowerback 14.2004 3.61111 7.22628
upperback -1.72471 6.86347 4.43508
thorax -9.59763 3.17853 -0.789923
lowerneck -16.1426 3.67074 1.98483
upperneck 0.947321 5.81097 -11.2525
head 3.29733 2.64462 -3.32366
rclavicle -6.67916e-014 -9.70069e-014
rhumerus -23.4711 19.2997 -91.1462
rradius 46.7615
rwrist 0.962756
rhand -20.83 -7.94061
rfingers 7.12502
rthumb 5.53849 -37.8482
lclavicle -6.67916e-014 -9.70069e-014
lhumerus -37.9127 -8.35149 97.298
lradius 43.5324
lwrist -0.845844
lhand -18.6838 0.401884
lfingers 7.12502
lthumb 7.61036 30.245
rfemur -13.1847 -9.98384 22.3443
rtibia 28.974
rfoot -28.0788 -19.0968
rtoes -36.4749
lfemur -61.7258 15.9047 -18.3346
ltibia 75.9425
lfoot -20.0507 -15.3046
ltoes -7.51059
134
root -8.92911 16.1475 34.8206 -155.878 21.5485 183.005
lowerback 14.1789 3.60779 7.33411
upperback -1.79229 6.90079 4.50429
thorax -9.65711 3.19402 -0.783657
lowerneck -16.0927 3.61336 2.00364
upperneck 0.794819 5.72765 -11.2783
head 3.23918 2.61397 -3.3431
rclavicle -5.725e-014 -7.95139e-015
rhumerus -23.365 19.9742 -91.4628
rradius 48.0776
rwrist 0.740908
rhand -21.12 -7.66463
rfingers 7.12502
rthumb 5.25848 -37.5794
lclavicle -5.725e-014 -7.95139e-015
lhumerus -38.5124 -8.67926 97.3134
lradius 44.1512
lwrist -0.67117
lhand -18.9093 0.323458
lfingers 7.12502
lthumb 7.39267 30.1743
rfemur -12.7429 -10.1697 22.448
rtibia 28.7376
rfoot -28.1529 -19.2023
rtoes -37.1034
lfemur -62.5758 16.3039 -18.7569
ltibia 76.7383
lfoot -20.1468 -16.1432
ltoes -7.74557
135
root -8.90468 16.0955 34.6551 -155.513 21.1347 183.174
lowerback 14.1483 3.60645 7.44636
upperback -1.87392 6.94323 4.57663
thorax -9.72682 3.21151 -0.777211
lowerneck -16.0435 3.55242 2.01833
upperneck 0.670276 5.64244 -11.309
head 3.18965 2.58065 -3.36325
rclavicle 5.80451e-014 -6.04305e-014
rhumerus -23.3803 20.5595 -91.7537
rradius 49.5458
rwrist 0.449185
rhand -21.355 -7.42139
rfingers 7.12502
rthumb 5.03159 -37.3417
lclavicle 5.80451e-014 -6.04305e-014
lhumerus -39.1861 -9.04175 97.3397
lradius 44.8795
lwrist -0.496114
lhand -19.033 0.260586
lfingers 7.12502
lthumb 7.27331 30.1156
rfemur -12.2369 -10.3001 22.5453
rtibia 28.4596
rfoot -28.2561 -19.2336
rtoes -37.553
lfemur -63.3918 16.6725 -19.2006
ltibia 77.5217
lfoot -20.204 -17.0602
ltoes -7.95539
